{
	"asset":{
		"generator":"Khronos glTF Blender I/O v4.2.69",
		"version":"2.0"
	},
	"extensionsUsed":[
		"KHR_materials_transmission"
	],
	"scene":0,
	"scenes":[
		{
			"name":"Scene",
			"nodes":[
				0
			]
		}
	],
	"nodes":[
		{
			"mesh":0,
			"name":"SAMSUNG S25",
			"rotation":[
				0,
				0,
				1,
				1.6292068494294654e-07
			]
		}
	],
	"materials":[
		{
			"doubleSided":true,
			"name":"S25 Body",
			"pbrMetallicRoughness":{
				"metallicFactor":0.9772727489471436,
				"roughnessFactor":0.4000000059604645
			}
		},
		{
			"doubleSided":true,
			"emissiveFactor":[
				0.5,
				0.5,
				0.5
			],
			"emissiveTexture":{
				"index":0
			},
			"name":"Wallpapers",
			"pbrMetallicRoughness":{
				"baseColorTexture":{
					"index":1
				},
				"metallicFactor":0,
				"roughnessFactor":0.37727272510528564
			}
		},
		{
			"doubleSided":true,
			"name":"Screen Frame",
			"pbrMetallicRoughness":{
				"baseColorFactor":[
					0,
					0.0006070545641705394,
					0.0003035271365661174,
					1
				],
				"metallicFactor":0,
				"roughnessFactor":0.5
			}
		},
		{
			"doubleSided":true,
			"extensions":{
				"KHR_materials_transmission":{
					"transmissionFactor":1
				}
			},
			"name":"Glass.Camera",
			"pbrMetallicRoughness":{
				"baseColorFactor":[
					0.800000011920929,
					0.800000011920929,
					0.800000011920929,
					1
				],
				"metallicFactor":0,
				"roughnessFactor":0.0363636314868927
			}
		},
		{
			"doubleSided":true,
			"name":"Frame",
			"pbrMetallicRoughness":{
				"baseColorFactor":[
					0.38642698526382446,
					0.3864298164844513,
					0.38642966747283936,
					1
				],
				"metallicFactor":0.9772727489471436,
				"roughnessFactor":0.4000000059604645
			}
		},
		{
			"doubleSided":true,
			"emissiveFactor":[
				0.5,
				0.45814475417137146,
				0.14438702166080475
			],
			"name":"Light.001",
			"pbrMetallicRoughness":{
				"baseColorFactor":[
					0,
					0,
					0,
					1
				]
			}
		},
		{
			"doubleSided":true,
			"extensions":{
				"KHR_materials_transmission":{
					"transmissionFactor":1
				}
			},
			"name":"Light",
			"pbrMetallicRoughness":{
				"baseColorFactor":[
					0.800000011920929,
					0.800000011920929,
					0.800000011920929,
					1
				],
				"metallicFactor":0,
				"roughnessFactor":0.41363635659217834
			}
		},
		{
			"doubleSided":true,
			"name":"S25 Body.002",
			"pbrMetallicRoughness":{
				"baseColorFactor":[
					0.2527085244655609,
					0.25271081924438477,
					0.25271081924438477,
					1
				],
				"metallicFactor":0.9772727489471436,
				"roughnessFactor":0.4000000059604645
			}
		},
		{
			"doubleSided":true,
			"name":"Camera",
			"pbrMetallicRoughness":{
				"baseColorFactor":[
					0.0024281993974000216,
					0.0024282175581902266,
					0.002428216626867652,
					1
				],
				"metallicFactor":0.9454545378684998,
				"roughnessFactor":0.30000001192092896
			}
		},
		{
			"doubleSided":true,
			"name":"Camera.001",
			"pbrMetallicRoughness":{
				"baseColorFactor":[
					0.7379054427146912,
					0.7379109263420105,
					0.7379106283187866,
					1
				],
				"metallicFactor":0.875,
				"roughnessFactor":0.5
			}
		},
		{
			"doubleSided":true,
			"name":"Camera.002",
			"pbrMetallicRoughness":{
				"baseColorFactor":[
					0.3515303432941437,
					0.3515329360961914,
					0.35153278708457947,
					1
				],
				"metallicFactor":0,
				"roughnessFactor":0.5
			}
		}
	],
	"meshes":[
		{
			"name":"Cube.001",
			"primitives":[
				{
					"attributes":{
						"POSITION":0,
						"NORMAL":1,
						"TEXCOORD_0":2
					},
					"indices":3,
					"material":0
				},
				{
					"attributes":{
						"POSITION":4,
						"NORMAL":5,
						"TEXCOORD_0":6
					},
					"indices":7,
					"material":1
				},
				{
					"attributes":{
						"POSITION":8,
						"NORMAL":9,
						"TEXCOORD_0":10
					},
					"indices":11,
					"material":2
				},
				{
					"attributes":{
						"POSITION":12,
						"NORMAL":13,
						"TEXCOORD_0":14
					},
					"indices":15,
					"material":3
				},
				{
					"attributes":{
						"POSITION":16,
						"NORMAL":17,
						"TEXCOORD_0":18
					},
					"indices":19,
					"material":4
				},
				{
					"attributes":{
						"POSITION":20,
						"NORMAL":21,
						"TEXCOORD_0":22
					},
					"indices":23,
					"material":5
				},
				{
					"attributes":{
						"POSITION":24,
						"NORMAL":25,
						"TEXCOORD_0":26
					},
					"indices":27,
					"material":6
				},
				{
					"attributes":{
						"POSITION":28,
						"NORMAL":29,
						"TEXCOORD_0":30
					},
					"indices":31,
					"material":7
				},
				{
					"attributes":{
						"POSITION":32,
						"NORMAL":33,
						"TEXCOORD_0":34
					},
					"indices":35,
					"material":8
				},
				{
					"attributes":{
						"POSITION":36,
						"NORMAL":37,
						"TEXCOORD_0":38
					},
					"indices":39,
					"material":9
				},
				{
					"attributes":{
						"POSITION":40,
						"NORMAL":41,
						"TEXCOORD_0":42
					},
					"indices":43,
					"material":10
				}
			]
		}
	],
	"textures":[
		{
			"sampler":0,
			"source":0
		},
		{
			"sampler":0,
			"source":0
		}
	],
	"images":[
		{
			"mimeType":"image/jpeg",
			"name":"cab2056de52e8386211e7b29dfa881ad",
			"uri":"cab2056de52e8386211e7b29dfa881ad.jpg"
		}
	],
	"accessors":[
		{
			"bufferView":0,
			"componentType":5126,
			"count":9624,
			"max":[
				1.1181561946868896,
				2.3404054641723633,
				0.11281272768974304
			],
			"min":[
				-1.1296577453613281,
				-2.3402843475341797,
				-0.11281277984380722
			],
			"type":"VEC3"
		},
		{
			"bufferView":1,
			"componentType":5126,
			"count":9624,
			"type":"VEC3"
		},
		{
			"bufferView":2,
			"componentType":5126,
			"count":9624,
			"type":"VEC2"
		},
		{
			"bufferView":3,
			"componentType":5123,
			"count":28743,
			"type":"SCALAR"
		},
		{
			"bufferView":4,
			"componentType":5126,
			"count":142,
			"max":[
				1.0450528860092163,
				2.2619221210479736,
				0.11281272023916245
			],
			"min":[
				-1.045053243637085,
				-2.2619216442108154,
				0.11281272023916245
			],
			"type":"VEC3"
		},
		{
			"bufferView":5,
			"componentType":5126,
			"count":142,
			"type":"VEC3"
		},
		{
			"bufferView":6,
			"componentType":5126,
			"count":142,
			"type":"VEC2"
		},
		{
			"bufferView":7,
			"componentType":5123,
			"count":426,
			"type":"SCALAR"
		},
		{
			"bufferView":8,
			"componentType":5126,
			"count":1694,
			"max":[
				1.082424283027649,
				2.3404054641723633,
				0.11281272768974304
			],
			"min":[
				-1.0824246406555176,
				-2.3214235305786133,
				-0.043259989470243454
			],
			"type":"VEC3"
		},
		{
			"bufferView":9,
			"componentType":5126,
			"count":1694,
			"type":"VEC3"
		},
		{
			"bufferView":10,
			"componentType":5126,
			"count":1694,
			"type":"VEC2"
		},
		{
			"bufferView":11,
			"componentType":5123,
			"count":4788,
			"type":"SCALAR"
		},
		{
			"bufferView":12,
			"componentType":5126,
			"count":29832,
			"max":[
				0.032637741416692734,
				-0.7259708642959595,
				0.11281272023916245
			],
			"min":[
				-0.858447790145874,
				-2.1855568885803223,
				-0.1867913156747818
			],
			"type":"VEC3"
		},
		{
			"bufferView":13,
			"componentType":5126,
			"count":29832,
			"type":"VEC3"
		},
		{
			"bufferView":14,
			"componentType":5126,
			"count":29832,
			"type":"VEC2"
		},
		{
			"bufferView":15,
			"componentType":5123,
			"count":166128,
			"type":"SCALAR"
		},
		{
			"bufferView":16,
			"componentType":5126,
			"count":4886,
			"max":[
				1.1235361099243164,
				2.3404054641723633,
				0.11281272768974304
			],
			"min":[
				-1.123536467552185,
				-2.340404987335205,
				-0.11281277984380722
			],
			"type":"VEC3"
		},
		{
			"bufferView":17,
			"componentType":5126,
			"count":4886,
			"type":"VEC3"
		},
		{
			"bufferView":18,
			"componentType":5126,
			"count":4886,
			"type":"VEC2"
		},
		{
			"bufferView":19,
			"componentType":5123,
			"count":22773,
			"type":"SCALAR"
		},
		{
			"bufferView":20,
			"componentType":5126,
			"count":4244,
			"max":[
				-0.1925128549337387,
				-1.6396021842956543,
				-0.10033396631479263
			],
			"min":[
				-0.2674010992050171,
				-1.7144907712936401,
				-0.11220633238554001
			],
			"type":"VEC3"
		},
		{
			"bufferView":21,
			"componentType":5126,
			"count":4244,
			"type":"VEC3"
		},
		{
			"bufferView":22,
			"componentType":5126,
			"count":4244,
			"type":"VEC2"
		},
		{
			"bufferView":23,
			"componentType":5123,
			"count":24192,
			"type":"SCALAR"
		},
		{
			"bufferView":24,
			"componentType":5126,
			"count":3869,
			"max":[
				-0.15738508105278015,
				-1.6044673919677734,
				-0.06044510379433632
			],
			"min":[
				-0.30252885818481445,
				-1.7496111392974854,
				-0.11456399410963058
			],
			"type":"VEC3"
		},
		{
			"bufferView":25,
			"componentType":5126,
			"count":3869,
			"type":"VEC3"
		},
		{
			"bufferView":26,
			"componentType":5126,
			"count":3869,
			"type":"VEC2"
		},
		{
			"bufferView":27,
			"componentType":5123,
			"count":12276,
			"type":"SCALAR"
		},
		{
			"bufferView":28,
			"componentType":5126,
			"count":2686,
			"max":[
				1.123648762702942,
				2.3404054641723633,
				0.11294382065534592
			],
			"min":[
				-1.1236488819122314,
				-2.340404987335205,
				-0.1136709526181221
			],
			"type":"VEC3"
		},
		{
			"bufferView":29,
			"componentType":5126,
			"count":2686,
			"type":"VEC3"
		},
		{
			"bufferView":30,
			"componentType":5126,
			"count":2686,
			"type":"VEC2"
		},
		{
			"bufferView":31,
			"componentType":5123,
			"count":6564,
			"type":"SCALAR"
		},
		{
			"bufferView":32,
			"componentType":5126,
			"count":14016,
			"max":[
				-0.4406634569168091,
				-0.6643601655960083,
				-0.10185420513153076
			],
			"min":[
				-0.9200584888458252,
				-2.170449733734131,
				-0.18731535971164703
			],
			"type":"VEC3"
		},
		{
			"bufferView":33,
			"componentType":5126,
			"count":14016,
			"type":"VEC3"
		},
		{
			"bufferView":34,
			"componentType":5126,
			"count":14016,
			"type":"VEC2"
		},
		{
			"bufferView":35,
			"componentType":5123,
			"count":54126,
			"type":"SCALAR"
		},
		{
			"bufferView":36,
			"componentType":5126,
			"count":792,
			"max":[
				-0.4406634569168091,
				-0.6643601655960083,
				-0.12400783598423004
			],
			"min":[
				-0.9200584888458252,
				-2.170449733734131,
				-0.18677431344985962
			],
			"type":"VEC3"
		},
		{
			"bufferView":37,
			"componentType":5126,
			"count":792,
			"type":"VEC3"
		},
		{
			"bufferView":38,
			"componentType":5126,
			"count":792,
			"type":"VEC2"
		},
		{
			"bufferView":39,
			"componentType":5123,
			"count":2304,
			"type":"SCALAR"
		},
		{
			"bufferView":40,
			"componentType":5126,
			"count":768,
			"max":[
				-0.5704991221427917,
				-0.794195830821991,
				-0.12627767026424408
			],
			"min":[
				-0.7902229428291321,
				-2.040614366531372,
				-0.16576535999774933
			],
			"type":"VEC3"
		},
		{
			"bufferView":41,
			"componentType":5126,
			"count":768,
			"type":"VEC3"
		},
		{
			"bufferView":42,
			"componentType":5126,
			"count":768,
			"type":"VEC2"
		},
		{
			"bufferView":43,
			"componentType":5123,
			"count":2304,
			"type":"SCALAR"
		}
	],
	"bufferViews":[
		{
			"buffer":0,
			"byteLength":115488,
			"byteOffset":0,
			"target":34962
		},
		{
			"buffer":0,
			"byteLength":115488,
			"byteOffset":115488,
			"target":34962
		},
		{
			"buffer":0,
			"byteLength":76992,
			"byteOffset":230976,
			"target":34962
		},
		{
			"buffer":0,
			"byteLength":57486,
			"byteOffset":307968,
			"target":34963
		},
		{
			"buffer":0,
			"byteLength":1704,
			"byteOffset":365456,
			"target":34962
		},
		{
			"buffer":0,
			"byteLength":1704,
			"byteOffset":367160,
			"target":34962
		},
		{
			"buffer":0,
			"byteLength":1136,
			"byteOffset":368864,
			"target":34962
		},
		{
			"buffer":0,
			"byteLength":852,
			"byteOffset":370000,
			"target":34963
		},
		{
			"buffer":0,
			"byteLength":20328,
			"byteOffset":370852,
			"target":34962
		},
		{
			"buffer":0,
			"byteLength":20328,
			"byteOffset":391180,
			"target":34962
		},
		{
			"buffer":0,
			"byteLength":13552,
			"byteOffset":411508,
			"target":34962
		},
		{
			"buffer":0,
			"byteLength":9576,
			"byteOffset":425060,
			"target":34963
		},
		{
			"buffer":0,
			"byteLength":357984,
			"byteOffset":434636,
			"target":34962
		},
		{
			"buffer":0,
			"byteLength":357984,
			"byteOffset":792620,
			"target":34962
		},
		{
			"buffer":0,
			"byteLength":238656,
			"byteOffset":1150604,
			"target":34962
		},
		{
			"buffer":0,
			"byteLength":332256,
			"byteOffset":1389260,
			"target":34963
		},
		{
			"buffer":0,
			"byteLength":58632,
			"byteOffset":1721516,
			"target":34962
		},
		{
			"buffer":0,
			"byteLength":58632,
			"byteOffset":1780148,
			"target":34962
		},
		{
			"buffer":0,
			"byteLength":39088,
			"byteOffset":1838780,
			"target":34962
		},
		{
			"buffer":0,
			"byteLength":45546,
			"byteOffset":1877868,
			"target":34963
		},
		{
			"buffer":0,
			"byteLength":50928,
			"byteOffset":1923416,
			"target":34962
		},
		{
			"buffer":0,
			"byteLength":50928,
			"byteOffset":1974344,
			"target":34962
		},
		{
			"buffer":0,
			"byteLength":33952,
			"byteOffset":2025272,
			"target":34962
		},
		{
			"buffer":0,
			"byteLength":48384,
			"byteOffset":2059224,
			"target":34963
		},
		{
			"buffer":0,
			"byteLength":46428,
			"byteOffset":2107608,
			"target":34962
		},
		{
			"buffer":0,
			"byteLength":46428,
			"byteOffset":2154036,
			"target":34962
		},
		{
			"buffer":0,
			"byteLength":30952,
			"byteOffset":2200464,
			"target":34962
		},
		{
			"buffer":0,
			"byteLength":24552,
			"byteOffset":2231416,
			"target":34963
		},
		{
			"buffer":0,
			"byteLength":32232,
			"byteOffset":2255968,
			"target":34962
		},
		{
			"buffer":0,
			"byteLength":32232,
			"byteOffset":2288200,
			"target":34962
		},
		{
			"buffer":0,
			"byteLength":21488,
			"byteOffset":2320432,
			"target":34962
		},
		{
			"buffer":0,
			"byteLength":13128,
			"byteOffset":2341920,
			"target":34963
		},
		{
			"buffer":0,
			"byteLength":168192,
			"byteOffset":2355048,
			"target":34962
		},
		{
			"buffer":0,
			"byteLength":168192,
			"byteOffset":2523240,
			"target":34962
		},
		{
			"buffer":0,
			"byteLength":112128,
			"byteOffset":2691432,
			"target":34962
		},
		{
			"buffer":0,
			"byteLength":108252,
			"byteOffset":2803560,
			"target":34963
		},
		{
			"buffer":0,
			"byteLength":9504,
			"byteOffset":2911812,
			"target":34962
		},
		{
			"buffer":0,
			"byteLength":9504,
			"byteOffset":2921316,
			"target":34962
		},
		{
			"buffer":0,
			"byteLength":6336,
			"byteOffset":2930820,
			"target":34962
		},
		{
			"buffer":0,
			"byteLength":4608,
			"byteOffset":2937156,
			"target":34963
		},
		{
			"buffer":0,
			"byteLength":9216,
			"byteOffset":2941764,
			"target":34962
		},
		{
			"buffer":0,
			"byteLength":9216,
			"byteOffset":2950980,
			"target":34962
		},
		{
			"buffer":0,
			"byteLength":6144,
			"byteOffset":2960196,
			"target":34962
		},
		{
			"buffer":0,
			"byteLength":4608,
			"byteOffset":2966340,
			"target":34963
		}
	],
	"samplers":[
		{
			"magFilter":9729,
			"minFilter":9987
		}
	],
	"buffers":[
		{
			"byteLength":2970948,
			"uri":"SAMSUNG%20S25.bin"
		}
	]
}
