<svg width="24" height="24" viewBox="0 0 24 24" fill="none" xmlns="http://www.w3.org/2000/svg">
<path d="M24 12C24 18.6274 18.6274 24 12 24C5.37258 24 0 18.6274 0 12C0 5.37258 5.37258 0 12 0C18.6274 0 24 5.37258 24 12Z" fill="url(#paint0_linear_1428_202)"/>
<path d="M16.7934 6.89144C16.9823 6.60283 17.3699 6.52125 17.6587 6.7098C17.9472 6.89865 18.0287 7.28627 17.8403 7.57503L11.6069 17.1082C11.5068 17.2613 11.344 17.3633 11.1626 17.3866C10.9813 17.4096 10.7989 17.3521 10.6636 17.2293L6.62938 13.5623C6.37431 13.3302 6.35551 12.9348 6.58739 12.6795C6.81961 12.4243 7.21584 12.4054 7.47118 12.6375L10.9604 15.8104L16.7934 6.89144Z" fill="white"/>
<defs>
<linearGradient id="paint0_linear_1428_202" x1="12" y1="0" x2="12" y2="24" gradientUnits="userSpaceOnUse">
<stop stop-color="#F96101"/>
<stop offset="1" stop-color="#F0B48D"/>
</linearGradient>
</defs>
</svg>
