<svg width="166" height="24" viewBox="0 0 166 24" fill="none" xmlns="http://www.w3.org/2000/svg">
<circle opacity="0.4" cx="12" cy="12" r="12" fill="black"/>
<circle cx="14.25" cy="10.25" r="1.25" fill="#D9D9D9"/>
<circle cx="14.25" cy="14.25" r="1.25" fill="#D9D9D9"/>
<circle cx="10.25" cy="10.25" r="1.25" fill="#D9D9D9"/>
<circle cx="10.25" cy="14.25" r="1.25" fill="#D9D9D9"/>
<rect x="76" width="90" height="24" rx="12" fill="black" fill-opacity="0.4"/>
<path d="M84.5986 14.3496C84.5986 14.1504 84.6689 13.9834 84.8096 13.8486C84.9531 13.7139 85.1392 13.6465 85.3677 13.6465C85.5991 13.6465 85.7837 13.7139 85.9214 13.8486C86.062 13.9834 86.1323 14.1504 86.1323 14.3496C86.1323 14.5459 86.062 14.7114 85.9214 14.8462C85.7837 14.981 85.5991 15.0483 85.3677 15.0483C85.1392 15.0483 84.9531 14.981 84.8096 14.8462C84.6689 14.7114 84.5986 14.5459 84.5986 14.3496ZM90.4565 8.52246H90.6675V9.6123H90.5884C90.2808 9.6123 89.9995 9.65625 89.7446 9.74414C89.4927 9.83203 89.2744 9.9624 89.0898 10.1353C88.9053 10.3052 88.7632 10.5161 88.6636 10.7681C88.5669 11.0171 88.5186 11.3042 88.5186 11.6294V12.7192C88.5186 12.939 88.5376 13.1309 88.5757 13.2949C88.6167 13.4561 88.6753 13.5908 88.7515 13.6992C88.8306 13.8047 88.9258 13.8853 89.0371 13.9409C89.1484 13.9937 89.2744 14.02 89.415 14.02C89.541 14.02 89.6567 13.9922 89.7622 13.9365C89.8677 13.8809 89.9585 13.8018 90.0347 13.6992C90.1108 13.5967 90.1694 13.478 90.2104 13.3433C90.2515 13.2056 90.272 13.0562 90.272 12.895C90.272 12.7251 90.25 12.5713 90.2061 12.4336C90.165 12.293 90.105 12.1729 90.0259 12.0732C89.9497 11.9736 89.856 11.8975 89.7446 11.8447C89.6333 11.7891 89.5103 11.7612 89.3755 11.7612C89.1821 11.7612 89.0151 11.8052 88.8745 11.8931C88.7339 11.981 88.6255 12.0938 88.5493 12.2314C88.4731 12.3691 88.4336 12.5098 88.4307 12.6533L88.0659 12.3501C88.0659 12.1509 88.1055 11.9546 88.1846 11.7612C88.2666 11.5649 88.3823 11.3877 88.5317 11.2295C88.6812 11.0684 88.8643 10.9409 89.0811 10.8472C89.3008 10.7505 89.5513 10.7021 89.8325 10.7021C90.1284 10.7021 90.3892 10.7593 90.6147 10.8735C90.8403 10.9849 91.0293 11.1401 91.1816 11.3394C91.3369 11.5386 91.4526 11.7715 91.5288 12.0381C91.6079 12.3018 91.6475 12.5845 91.6475 12.8862C91.6475 13.1968 91.5933 13.4868 91.4849 13.7563C91.3794 14.0229 91.23 14.2559 91.0366 14.4551C90.8433 14.6543 90.6118 14.8096 90.3423 14.9209C90.0757 15.0322 89.7783 15.0879 89.4502 15.0879C89.1104 15.0879 88.7998 15.0278 88.5186 14.9077C88.2402 14.7876 87.9971 14.6162 87.7891 14.3936C87.584 14.168 87.4243 13.8984 87.3101 13.585C87.1987 13.2715 87.1431 12.9199 87.1431 12.5303V12.0161C87.1431 11.4829 87.2251 11.0024 87.3892 10.5747C87.5562 10.147 87.7876 9.78076 88.0835 9.47607C88.3823 9.16846 88.7339 8.93262 89.1382 8.76855C89.5425 8.60449 89.9819 8.52246 90.4565 8.52246Z" fill="white"/>
<rect x="99" y="1" width="22" height="22" rx="11" fill="black" fill-opacity="0.5"/>
<path d="M108.695 8.59717V15H107.319V10.1616L105.834 10.6143V9.55078L108.559 8.59717H108.695ZM111.881 10.2451L112.61 11.6206L113.362 10.2451H114.803L113.507 12.5654L114.865 15H113.415L112.615 13.5322L111.819 15H110.365L111.723 12.5654L110.431 10.2451H111.881Z" fill="white"/>
<path d="M134.241 13.9321V15H129.82V14.0947L131.886 11.9062C132.079 11.6836 132.233 11.4873 132.347 11.3174C132.464 11.1475 132.549 10.9937 132.602 10.856C132.655 10.7153 132.681 10.5864 132.681 10.4692C132.681 10.2788 132.65 10.1177 132.589 9.98584C132.53 9.854 132.444 9.75293 132.33 9.68262C132.215 9.6123 132.076 9.57715 131.912 9.57715C131.736 9.57715 131.585 9.62256 131.459 9.71338C131.333 9.8042 131.237 9.93018 131.169 10.0913C131.102 10.2495 131.068 10.4297 131.068 10.6318H129.688C129.688 10.2422 129.782 9.8877 129.97 9.56836C130.157 9.24609 130.419 8.98975 130.756 8.79932C131.093 8.60596 131.487 8.50928 131.938 8.50928C132.401 8.50928 132.79 8.58252 133.103 8.729C133.417 8.87549 133.654 9.08496 133.815 9.35742C133.976 9.62988 134.057 9.95801 134.057 10.3418C134.057 10.5586 134.021 10.7681 133.951 10.9702C133.884 11.1724 133.786 11.373 133.657 11.5723C133.528 11.7715 133.373 11.9751 133.191 12.1831C133.009 12.3882 132.804 12.605 132.576 12.8335L131.609 13.9321H134.241Z" fill="white"/>
<path d="M153.143 11.2163H153.842C154.041 11.2163 154.205 11.1812 154.334 11.1108C154.466 11.0405 154.562 10.9409 154.624 10.812C154.688 10.6831 154.721 10.5322 154.721 10.3594C154.721 10.21 154.691 10.0767 154.633 9.95947C154.574 9.84229 154.485 9.75 154.365 9.68262C154.248 9.6123 154.095 9.57715 153.908 9.57715C153.773 9.57715 153.644 9.60498 153.521 9.66064C153.401 9.71338 153.303 9.79102 153.227 9.89355C153.15 9.99316 153.112 10.1133 153.112 10.2539H151.737C151.737 9.89648 151.833 9.5874 152.027 9.32666C152.223 9.06592 152.482 8.86523 152.805 8.72461C153.13 8.58105 153.484 8.50928 153.868 8.50928C154.311 8.50928 154.699 8.57959 155.033 8.72021C155.37 8.85791 155.63 9.06299 155.815 9.33545C156.002 9.60498 156.096 9.93896 156.096 10.3374C156.096 10.5454 156.046 10.7461 155.947 10.9395C155.85 11.1299 155.711 11.2998 155.529 11.4492C155.351 11.5957 155.137 11.7129 154.888 11.8008C154.642 11.8857 154.368 11.9282 154.066 11.9282H153.143V11.2163ZM153.143 12.249V11.5503H154.066C154.4 11.5503 154.699 11.5884 154.962 11.6646C155.226 11.7407 155.45 11.8506 155.635 11.9941C155.819 12.1377 155.96 12.312 156.057 12.5171C156.153 12.7222 156.202 12.9507 156.202 13.2026C156.202 13.5015 156.143 13.7681 156.026 14.0024C155.909 14.2368 155.745 14.4346 155.534 14.5957C155.323 14.7568 155.075 14.8799 154.791 14.9648C154.507 15.0469 154.199 15.0879 153.868 15.0879C153.602 15.0879 153.336 15.0513 153.073 14.978C152.809 14.9048 152.57 14.7935 152.356 14.644C152.143 14.4917 151.971 14.2998 151.842 14.0684C151.713 13.834 151.649 13.5557 151.649 13.2334H153.024C153.024 13.3828 153.062 13.5176 153.139 13.6377C153.218 13.7549 153.325 13.8486 153.459 13.9189C153.597 13.9863 153.747 14.02 153.908 14.02C154.101 14.02 154.265 13.9849 154.4 13.9146C154.538 13.8413 154.642 13.7417 154.712 13.6157C154.785 13.4897 154.822 13.3447 154.822 13.1807C154.822 12.958 154.782 12.7793 154.703 12.6445C154.627 12.5068 154.516 12.4072 154.369 12.3457C154.223 12.2812 154.047 12.249 153.842 12.249H153.143Z" fill="white"/>
</svg>
